# xmcd
#
# Track frame offsets:
#	150
#	32103
#	53333
#	76137
#	99841
#	125870
#	155424
#	177180
#	205758
#	225261
#	250167
#	277247
#	293675
#
# Disc length: 4418 seconds
#
# Revision: 1
# Processed by: cddbd v1.5.2PL0 Copyright (c) Steve Scherf et al.
# Submitted via: EasyCDDAExtractor 10.0.6.1
#
DISCID=a411400d
DTITLE=Joe Satriani - Live in San Francisco CD1
DYEAR=2001
DGENRE=Instrumental Rock
TTITLE0=Time
TTITLE1=Devil's Slide
TTITLE2=The Crush of Love (Satriani, John Cuniberti)
TTITLE3=Satch Boogie
TTITLE4=Borg Sex
TTITLE5=Flying in a Blue Dream
TTITLE6=Ice 9
TTITLE7=Cool #9
TTITLE8=Circles
TTITLE9=Until We Say Goodbye
TTITLE10=Ceremony
TTITLE11=The Extremist
TTITLE12=Summer Song
EXTD=
EXTT0=
EXTT1=
EXTT2=
EXTT3=
EXTT4=
EXTT5=
EXTT6=
EXTT7=
EXTT8=
EXTT9=
EXTT10=
EXTT11=
EXTT12=
PLAYORDER=
